<?xml version="1.0" encoding="UTF-8"?>
<!DOCTYPE svg PUBLIC "-//W3C//DTD SVG 1.1//EN" "http://www.w3.org/Graphics/SVG/1.1/DTD/svg11.dtd">
<svg xmlns="http://www.w3.org/2000/svg" version="1.1" width="169px" height="124px" style="shape-rendering:geometricPrecision; text-rendering:geometricPrecision; image-rendering:optimizeQuality; fill-rule:evenodd; clip-rule:evenodd" xmlns:xlink="http://www.w3.org/1999/xlink">
<g><path style="opacity:0.915" fill="#fefffe" d="M 43.5,13.5 C 47.6875,18.0227 51.0208,23.1894 53.5,29C 45.0513,39.3912 36.718,49.8912 28.5,60.5C 37.0389,71.2017 45.3722,82.035 53.5,93C 50.4653,98.2338 47.2986,103.4 44,108.5C 30.774,92.9452 17.9407,77.1119 5.5,61C 5.86229,59.7753 6.36229,58.6086 7,57.5C 19.4132,42.987 31.5799,28.3203 43.5,13.5 Z"/></g>
<g><path style="opacity:0.915" fill="#fefffe" d="M 122.5,13.5 C 132.455,24.055 141.955,35.055 151,46.5C 154.515,51.344 158.015,56.1774 161.5,61C 149.059,77.1119 136.226,92.9452 123,108.5C 119.701,103.4 116.535,98.2338 113.5,93C 121.628,82.035 129.961,71.2017 138.5,60.5C 130.573,50.3163 122.406,40.3163 114,30.5C 115.719,24.3954 118.552,18.7287 122.5,13.5 Z"/></g>
<g><path style="opacity:0.921" fill="#fefffe" d="M 87.5,14.5 C 93.5092,14.3338 99.5092,14.5005 105.5,15C 96.1995,45.736 87.1995,76.5693 78.5,107.5C 72.5,107.5 66.5,107.5 60.5,107.5C 69.0372,76.3489 78.0372,45.3489 87.5,14.5 Z"/></g>
</svg>
